<svg xmlns="http://www.w3.org/2000/svg">
  <defs>
    <linearGradient id="linear" y2="1">
      <stop stop-color="#b9b9b9" offset="0.1"/>
      <stop stop-color="#ffffff" offset="0.9"/>
    </linearGradient>

    <symbol id="digit-0" viewBox="0 0 10 16">
      <path d="m1 2h8v12h-8z" fill="#3f3f3f"/>
      <path d="m2 3h6v10h-6zm4 2h-2v6h2z" fill="url(#linear)"/>
    </symbol>

    <symbol id="digit-1" viewBox="0 0 10 16">
      <path d="m1 12v-2h2v-4h-2v-4h6v8h2v4h-8z" fill="#3f3f3f"/>
      <path d="m2 12v-1h2v-6h-2v-2h4v8h2v2h-6z" fill="url(#linear)" style="paint-order:markers stroke fill"/>
    </symbol>

    <symbol id="digit-2" viewBox="0 0 10 16">
      <path d="m1 2h8v12h-8z" fill="#3f3f3f"/>
      <path d="m2 10v-3h4v-2h-4v-2h6v6h-4v2h4v2h-6z" fill="url(#linear)"/>
    </symbol>

    <symbol id="digit-3" viewBox="0 0 10 16">
      <path d="m1 2h8v12h-8z" fill="#3f3f3f"/>
      <path d="m2 12v-1h4v-2h-4v-2h4v-2h-4v-2h6v10h-6z" fill="url(#linear)"/>
    </symbol>

    <symbol id="digit-4" viewBox="0 0 10 16">
      <path d="m5 12v-2h-4v-8h8v12h-4z" fill="#3f3f3f"/>
      <path d="m6 11v-2h-4v-6h2v4h2v-4h2v10h-2z" fill="url(#linear)"/>
    </symbol>

    <symbol id="digit-5" viewBox="0 0 10 16">
      <path d="m1 2h8v12h-8z" fill="#3f3f3f"/>
      <path d="m2 12v-1h4v-2h-4v-6h6v2h-4v2h4v6h-6z" fill="url(#linear)"/>
    </symbol>

    <symbol id="digit-6" viewBox="0 0 10 16">
      <path d="m1 2h8v12h-8z" fill="#3f3f3f"/>
      <path d="m2 8v-5h6v2h-4v2h4v6h-6zm4 2v-1h-2v2h2z" fill="url(#linear)"/>
    </symbol>

    <symbol id="digit-7" viewBox="0 0 10 16">
      <path d="m5 10v-4h-4v-4h8v12h-4z" fill="#3f3f3f"/>
      <path d="m6 9v-4h-4v-2h6v10h-2z" fill="url(#linear)"/>
    </symbol>

    <symbol id="digit-8" viewBox="0 0 10 16">
      <path d="m1 2h8v12h-8z" fill="#3f3f3f"/>
      <path d="m2 8v-5h6v10h-6zm4 2v-1h-2v2h2zm0-4v-1h-2v2h2z" fill="url(#linear)"/>
    </symbol>

    <symbol id="digit-9" viewBox="0 0 10 16">
      <path d="m1 2h8v12h-8z" fill="#3f3f3f"/>
      <path d="m2 12v-1h4v-2h-4v-6h6v10h-6zm4-6v-1h-2v2h2z" fill="url(#linear)"/>
    </symbol>
    
    <symbol id="colon" viewBox="0 0 10 16">
      <path d="m3 3h4v4h-4zm0 6h4v4h-4z" fill="#3f3f3f"/>
      <path d="m4 4h2v2h-2zm0 6h2v2h-2z" fill="url(#linear)"/>
    </symbol>
    
    <symbol id="space" viewBox="0 0 10 16">
      <!-- none -->
    </symbol>
  </defs>
</svg>