<?xml version="1.0" encoding="UTF-8"?>
<svg version="1.1" viewBox="0 0 53 20" xmlns="http://www.w3.org/2000/svg">
 <defs>
  <linearGradient id="linear" y2="0.2">
   <stop stop-color="#b9b9b9" offset="0.1"/>
   <stop stop-color="#ffffff" offset="0.9"/>
  </linearGradient>
 </defs>
 <g stroke-linecap="square" stroke-width="0">
  <g fill="#3f3f3f">
   <path d="m2 15v-2h2v-11h13v16h-15zm6-5v-7h-3v11h-2v3h5zm4 4v-2h1v5h3v-7h-2v-1h2v-6h-3v4h-1v-4h-3v6h2v1h-2v7h3z" style="paint-order:markers stroke fill"/>
   <path d="m18 13v-5h4v1h1v1h1v8h-6zm4 0.5v-2.5h-1v-1h-1v6h2z" style="paint-order:markers stroke fill"/>
   <path d="m25 14v-4h5v2h-3v1h3v2h-3v1h3v2h-5z" style="paint-order:markers stroke fill"/>
   <path d="m31 17v-1h3v-1h-3v-5h5v2h-3v1h3v5h-5z" style="paint-order:markers stroke fill"/>
   <path d="m37 10h2v8h-2z" style="paint-order:markers stroke fill"/>
   <path d="m40 14v-4h5v2h-3v4h1v-3h2v5h-5z" style="paint-order:markers stroke fill"/>
   <path d="m46 14v-4h1v1h1v1h1v1h1v1h1v4h-2v-4h-1v4h-2z" style="paint-order:markers stroke fill"/>
   <path d="m50 12.5v-0.5h-1v-2h2v3h-1z" style="paint-order:markers stroke fill"/>
  </g>
  <path d="m3 15v-1h2v-11h3v14h-5z" fill="url(#linear)" style="paint-order:markers stroke fill"/>
  <path d="m9 13v-3h2v-1h-2v-6h3v4h1v-4h3v6h-2v1h2v7h-3v-5h-1v5h-3z" fill="url(#linear)" style="paint-order:markers stroke fill"/>
 </g>
</svg>
